<?xml version="1.0" encoding="UTF-8" standalone="no"?>
<!-- Created with Inkscape (http://www.inkscape.org/) -->

<svg
   width="196.4156mm"
   height="130.11644mm"
   viewBox="0 0 196.4156 130.11644"
   version="1.1"
   id="svg1"
   xml:space="preserve"
   inkscape:version="1.3.2 (091e20e, 2023-11-25)"
   sodipodi:docname="fender.svg"
   xmlns:inkscape="http://www.inkscape.org/namespaces/inkscape"
   xmlns:sodipodi="http://sodipodi.sourceforge.net/DTD/sodipodi-0.dtd"
   xmlns="http://www.w3.org/2000/svg"
   xmlns:svg="http://www.w3.org/2000/svg"><sodipodi:namedview
     id="namedview1"
     pagecolor="#ffffff"
     bordercolor="#000000"
     borderopacity="0.25"
     inkscape:showpageshadow="2"
     inkscape:pageopacity="0.0"
     inkscape:pagecheckerboard="0"
     inkscape:deskcolor="#d1d1d1"
     inkscape:document-units="mm"
     inkscape:zoom="1.0419012"
     inkscape:cx="321.04772"
     inkscape:cy="210.67257"
     inkscape:window-width="1392"
     inkscape:window-height="970"
     inkscape:window-x="2096"
     inkscape:window-y="25"
     inkscape:window-maximized="0"
     inkscape:current-layer="layer1" /><defs
     id="defs1" /><g
     inkscape:label="Layer 1"
     inkscape:groupmode="layer"
     id="layer1"
     style="display:inline;opacity:1"
     transform="translate(-7.1997929,-91.024295)"><path
       id="path1"
       style="display:inline;fill:#a0aec0;fill-opacity:1"
       d="m 141.35594,91.026539 c -0.01,-0.0109 0.0173,0.0208 0.0279,0.0331 h 0.003 c -0.0105,-0.0109 -0.021,-0.0217 -0.031,-0.0331 z m -0.21704,0.0233 c -0.006,-5.2e-4 -0.007,10e-4 0.002,0.006 -0.015,0.002 -0.03,0.003 -0.045,0.005 h 0.092 c -0.0215,-0.005 -0.0404,-0.0101 -0.0491,-0.0109 z m -0.39222,0.0403 c -0.0193,6.7e-4 -0.0386,0.003 -0.0579,0.003 -0.0677,0.002 -0.13581,0.003 -0.20361,0.003 -0.0822,3.8e-4 -0.16429,4.5e-4 -0.24649,5.1e-4 -0.0522,3e-5 -0.10439,1e-5 -0.15658,0 l -0.97927,0.44029 c -2.47304,1.11226 -5.15812,4.79553 -6.74171,9.247491 -1.17644,3.3074 -3.91129,18.6162 -4.29069,24.01818 l -0.1354,1.93114 -1.95957,0.26355 c -2.42933,0.32662 -3.99061,1.09096 -5.82961,2.85358 -2.26033,2.16637 -2.78912,3.44695 -7.27501,17.62631 -2.01945,6.3832 -3.2626,9.18367 -4.17959,9.41493 -1.28576,0.32425 -1.38004,0.0362 -1.34204,-4.09897 0.0308,-3.35548 0.14312,-4.33536 1.01389,-8.87853 1.20673,-6.2961 1.36467,-7.79168 0.89142,-8.42119 -0.4517,-0.60084 -1.67154,-0.57574 -2.91197,0.0599 -3.83241,1.96459 -7.107455,6.11579 -8.598945,10.89959 -0.60609,1.94389 -1.43006,2.94732 -2.082048,2.53525 -0.324007,-0.20478 -0.416626,-0.69069 -0.471806,-2.47788 -0.07796,-2.52502 -0.35932,-3.07113 -1.582332,-3.07113 -1.061796,0 -2.751381,1.20563 -3.754293,2.67838 -0.464836,0.68263 -2.113068,3.91326 -3.662308,7.17941 -3.23784,6.82604 -6.660931,13.46845 -7.846033,15.22543 -1.617973,2.39872 -3.689077,4.37182 -4.589901,4.37182 -2.924826,0 -0.670868,-6.81762 3.707267,-11.21275 2.049193,-2.05714 2.595055,-3.00475 2.147673,-3.72949 -0.88259,-1.42968 -3.888097,-1.17676 -6.463688,0.54416 -1.851552,1.23714 -2.58046,1.48301 -3.27887,1.10742 -1.16357,-0.62572 -0.120452,-2.94421 2.637048,-5.86114 2.244374,-2.3741 2.612285,-2.54962 4.906161,-2.34559 1.437932,0.1279 1.982917,0.0831 2.544547,-0.20877 0.943299,-0.49016 3.009799,-2.83854 3.629236,-4.1243 0.458585,-0.95187 0.466337,-1.06248 0.114205,-1.60249 -0.655177,-1.00478 -1.191136,-1.13643 -4.138249,-1.01595 -4.399732,0.17988 -6.760824,1.38599 -10.77867,5.50509 -3.381251,3.46641 -4.65394,5.79835 -4.64106,8.50439 0.01033,2.1708 0.816174,3.2935 2.773991,3.86539 2.233132,0.65232 2.493341,1.74448 1.058333,4.43901 -1.789067,3.35935 -2.39253,6.65196 -1.578198,8.61033 0.440247,1.0587 1.911359,2.67035 2.960543,3.24321 1.38637,0.75698 3.963599,0.55482 6.043042,-0.47387 2.889534,-1.42952 4.012582,-2.87885 9.429398,-12.1698 1.649298,-2.8289 3.160383,-5.27833 3.357935,-5.44308 0.60946,-0.50825 0.94942,0.19133 1.249536,2.57193 0.323666,2.56747 1.266701,5.75573 1.861902,6.29471 0.721114,0.65301 1.61907,0.74814 2.138371,0.22634 0.254958,-0.2562 1.074257,-2.05579 1.82056,-3.99924 3.422468,-8.91234 5.370813,-12.91652 6.285403,-12.91652 0.40318,0 0.45488,0.18138 0.45888,1.60352 0.008,3.04226 0.41219,5.7586 1.05317,7.07502 0.85726,1.76063 2.46213,3.19825 3.57032,3.19825 2.10217,0 3.71043,-1.60022 6.00997,-5.98051 1.82067,-3.46802 2.15087,-3.66972 3.28817,-2.00866 1.51086,2.20648 4.49888,2.93207 7.00371,1.70067 2.07442,-1.01981 3.55857,-2.99585 4.73253,-6.30091 0.7488,-2.10812 0.93461,-2.37556 1.65054,-2.37556 0.39491,0 0.73706,0.31925 1.26246,1.17718 1.21878,1.99032 2.68888,2.37614 4.97592,1.30638 1.72812,-0.80825 4.34645,-3.52946 5.59708,-5.81669 1.20379,-2.20163 1.55691,-2.29642 3.9672,-1.06712 2.31806,1.18228 3.57961,1.20552 5.74745,0.10593 2.05727,-1.04345 4.74006,-3.71146 6.60063,-6.5629 1.2761,-1.95574 4.65019,-8.40459 9.6051,-18.35961 1.57262,-3.15956 2.05393,-3.93432 2.48357,-3.99562 0.83388,-0.11898 0.88512,0.49721 0.27078,3.24735 -0.47799,2.13989 -0.56485,3.17011 -0.56585,6.68641 -0.001,3.90925 0.0319,4.22081 0.55655,5.22604 1.64625,3.15412 4.07099,4.02094 7.67343,2.7435 3.86544,-1.37067 6.87039,-3.79576 21.13928,-17.06304 4.39289,-4.08444 5.09856,-4.95444 4.98161,-6.13864 -0.10196,-1.03237 -1.13326,-1.81965 -1.91461,-1.46193 -0.30439,0.13936 -3.52529,2.74986 -7.1577,5.8012 -13.18674,11.07708 -15.52994,12.80258 -17.3638,12.78578 -0.98187,-0.009 -1.44476,-0.32547 -1.96991,-1.34669 -0.81775,-1.5902 -0.34218,-4.08367 1.87017,-9.81025 2.6865,-6.95374 2.82864,-7.59573 1.99161,-8.97516 -0.59294,-0.97725 -1.21711,-1.21499 -2.53886,-0.96687 -1.05025,0.19715 -2.0232,0.75233 -3.16777,1.80713 -0.3447,0.3176 -0.82362,0.53975 -1.06401,0.49351 -0.3748,-0.0722 -0.47852,-0.48019 -0.72657,-2.86185 -0.33999,-3.26433 -0.87098,-4.61854 -2.14974,-5.48183 -1.17174,-0.791 -1.95998,-0.93992 -3.24838,-0.61392 -3.87349,0.98006 -7.31217,8.69667 -5.4591,12.25042 0.18858,0.36165 0.91189,1.03951 1.60765,1.50637 1.93552,1.29867 1.90724,1.42676 -2.12132,9.5281 -3.5762,7.19169 -5.90791,11.34184 -7.37164,13.12168 -2.55975,3.11252 -4.72633,3.70636 -4.72633,1.29501 0,-1.98768 2.04148,-5.55061 5.37384,-9.37824 2.06776,-2.37518 2.41979,-3.14311 1.84433,-4.0256 -0.87727,-1.34527 -3.08062,-1.09796 -6.20841,0.69712 -1.28732,0.73882 -2.48445,1.34359 -2.66082,1.34359 -0.54542,0 -1.18546,-0.75585 -1.18546,-1.39992 0,-0.44824 0.44015,-1.03864 1.63505,-2.19263 2.08081,-2.00962 3.56883,-2.73349 6.04769,-2.94246 1.88103,-0.15857 1.89742,-0.16562 2.97139,-1.30638 1.46902,-1.56023 2.68886,-3.87014 2.36523,-4.47776 -0.32818,-0.61628 -0.75592,-0.74569 -2.46444,-0.74569 -3.00374,0 -7.31992,1.70365 -10.70426,4.22507 -2.3017,1.71478 -3.89737,3.50639 -4.85758,5.45444 -0.65597,1.33072 -0.71882,1.64459 -0.60824,3.02876 0.0678,0.84925 0.30125,1.81634 0.51832,2.14922 0.50798,0.77902 1.61404,1.45025 2.70164,1.63969 2.57934,0.4494 2.72161,1.03512 0.88832,3.65766 -0.69886,0.99974 -1.99408,3.04665 -2.87786,4.54908 -4.20579,7.14978 -5.74618,8.72508 -6.86056,7.01611 -0.32833,-0.50354 -0.36657,-1.24017 -0.27647,-5.28495 l 0.10438,-4.70049 2.25878,-9.38237 c 4.46268,-18.54052 6.56109,-28.376891 6.55309,-30.712861 -0.006,-1.62049 -0.53507,-3.07148 -1.40457,-3.84937 z m 50.754,1.53737 c -0.60499,-0.003 -1.21884,0.11277 -2.00814,0.3483 -4.19027,1.25037 -5.72953,6.87579 -2.79725,10.223151 1.01213,1.15538 1.79163,1.64236 3.17449,1.98489 1.06222,0.26313 3.1975,0.0893 4.23643,-0.34468 1.10201,-0.46037 2.70088,-2.00742 3.1905,-3.08767 0.64432,-1.42153 0.58864,-3.946661 -0.1204,-5.476671 -0.69007,-1.48908 -2.13541,-2.76149 -3.72174,-3.27628 -0.75259,-0.24425 -1.34889,-0.36762 -1.95389,-0.37104 z m -0.76946,1.00252 c 0.93522,-0.12935 1.90987,0.0353 2.89698,0.49713 1.82328,0.85306 3.1275,2.86497 3.1533,4.86482 0.028,2.165891 -1.51581,4.447141 -3.46026,5.112871 -3.64104,1.24657 -6.90359,-1.05278 -6.95719,-4.903061 -0.0265,-1.90073 0.52403,-3.28841 1.70739,-4.3062 0.82895,-0.71302 1.72456,-1.13621 2.65978,-1.26556 z m -1.62212,1.70791 -0.0661,3.43338 c -0.0362,1.888361 -0.013,3.572061 0.0517,3.741371 0.16371,0.42867 0.76177,0.38489 0.93483,-0.0682 0.0789,-0.20666 0.14314,-0.95456 0.14314,-1.66243 0,-1.219341 0.0319,-1.287261 0.59996,-1.287261 0.48112,0 0.78863,0.30339 1.55701,1.534791 0.86556,1.38713 1.67158,2.06119 2.03192,1.69912 0.0739,-0.0743 -0.30014,-0.79988 -0.83147,-1.6123 l -0.96584,-1.476921 0.70125,-0.42891 c 0.83388,-0.50956 1.23848,-1.44056 1.03353,-2.37815 -0.23224,-1.06251 -1.00023,-1.40837 -3.22719,-1.45417 z m 3.0024,0.9834 c 0.78536,0.0547 1.1343,0.36893 1.1343,0.98237 0,0.36904 -0.12717,0.79923 -0.28319,0.95601 -0.15603,0.15678 -0.84776,0.28474 -1.53686,0.28474 h -1.25315 v -1.04386 -1.04387 l 1.00511,-0.1049 c 0.36195,-0.0379 0.672,-0.0487 0.93379,-0.0305 z M 54.064116,117.11229 c -2.53456,0.007 -6.719127,1.04302 -9.395292,2.39624 -5.486607,2.77428 -16.759279,12.38042 -28.267008,24.08741 -7.5528801,7.68373 -9.2020231,9.9574 -9.2020231,12.68605 0,2.13904 0.728035,3.78248 2.523361,5.69474 1.9429241,2.06954 3.0077541,2.60346 5.1908971,2.60346 2.673256,0 5.419276,-1.06885 9.871749,-3.84369 4.040497,-2.51808 4.755215,-3.47374 3.955831,-5.2896 -0.251534,-0.57138 -0.999463,-1.74946 -1.661914,-2.61793 -1.759694,-2.3069 -1.724508,-2.46661 1.21853,-5.51697 2.857228,-2.96149 7.890335,-7.58853 13.709758,-12.60285 10.042661,-8.65335 9.788348,-8.6168 9.543603,-1.36633 -0.195376,5.78801 -0.824745,16.9603 -0.984953,17.48524 -0.317213,1.03941 -10.511792,8.31993 -18.072282,12.90619 -1.885275,1.14362 -3.50581,2.20256 -3.60133,2.35335 -0.601864,0.95008 0.735621,2.60603 3.010152,3.72587 1.66871,0.82158 4.44203,0.93595 6.350517,0.262 1.779079,-0.62832 4.324155,-2.23326 6.415112,-4.04524 1.696152,-1.46979 2.384028,-1.74543 2.645834,-1.05988 0.441733,1.1567 -1.378406,10.30079 -6.423898,32.27142 -4.819393,20.98601 -4.794505,20.86013 -4.299479,22.03948 0.280176,0.66748 0.637532,1.01719 1.390613,1.36064 2.879706,1.31329 8.468118,-0.0841 11.258744,-2.81533 2.026553,-1.98344 2.59156,-3.64308 4.419885,-12.97544 2.978476,-15.20306 6.058875,-36.7518 6.718453,-46.99971 0.1331,-2.06799 0.30179,-3.85699 0.374654,-3.97547 0.07287,-0.11848 2.015222,-1.82971 4.316533,-3.80235 8.134924,-6.97332 8.001231,-6.81723 6.725688,-7.8264 -0.60317,-0.47715 -0.863283,-0.50845 -3.604948,-0.42995 -2.719519,0.0778 -3.041407,0.13658 -4.039547,0.73484 -0.596506,0.35753 -1.373228,0.64957 -1.725993,0.64957 -1.117769,0 -1.32456,-0.97535 -1.34307,-6.34638 -0.02904,-8.42425 -0.319569,-13.05846 -0.917257,-14.62391 -1.011366,-2.64893 -3.150194,-4.75953 -5.124752,-5.05706 -0.285527,-0.043 -0.614085,-0.063 -0.976168,-0.062 z m 72.466894,17.2806 c 0.46901,-0.029 0.85095,0.17689 1.13998,0.62012 0.55021,0.84379 0.34738,4.64236 -0.36122,6.76392 -0.84355,2.5257 -2.5952,5.81619 -3.84834,7.22902 -1.38721,1.56391 -2.29847,1.76056 -3.28094,0.70848 -0.52813,-0.56555 -0.57161,-0.79396 -0.55501,-2.9099 0.0318,-4.03889 1.36919,-7.61157 3.86178,-10.31771 1.23864,-1.34472 2.26206,-2.04567 3.04375,-2.09393 z" /></g></svg>
