<?xml version="1.0" encoding="UTF-8" standalone="no"?>
<!-- Created with Inkscape (http://www.inkscape.org/) -->

<svg
   width="175.92009mm"
   height="98.439995mm"
   viewBox="0 0 175.92009 98.439995"
   version="1.1"
   id="svg1"
   xml:space="preserve"
   inkscape:version="1.3.2 (091e20e, 2023-11-25)"
   sodipodi:docname="gibson.svg"
   xmlns:inkscape="http://www.inkscape.org/namespaces/inkscape"
   xmlns:sodipodi="http://sodipodi.sourceforge.net/DTD/sodipodi-0.dtd"
   xmlns="http://www.w3.org/2000/svg"
   xmlns:svg="http://www.w3.org/2000/svg"><sodipodi:namedview
     id="namedview1"
     pagecolor="#ffffff"
     bordercolor="#000000"
     borderopacity="0.25"
     inkscape:showpageshadow="2"
     inkscape:pageopacity="0.0"
     inkscape:pagecheckerboard="0"
     inkscape:deskcolor="#d1d1d1"
     inkscape:document-units="mm"
     inkscape:zoom="0.73673541"
     inkscape:cx="344.76421"
     inkscape:cy="152.70068"
     inkscape:window-width="1392"
     inkscape:window-height="970"
     inkscape:window-x="2061"
     inkscape:window-y="26"
     inkscape:window-maximized="0"
     inkscape:current-layer="layer1" /><defs
     id="defs1" /><g
     inkscape:label="Layer 1"
     inkscape:groupmode="layer"
     id="layer1"
     transform="translate(-13.629497,-107.96633)"><path
       style="fill:#a0aec0;fill-opacity:1"
       d="m 33.097348,205.41052 c -0.260368,-0.63185 -0.473396,-6.17003 -0.473396,-12.30706 0,-13.72787 0.0047,-13.721 -7.321046,-10.62776 -6.126389,2.58682 -9.269738,2.58769 -10.666498,0.003 -1.186934,-2.19645 -1.398916,-49.73515 -0.234494,-52.58721 1.578629,-3.86659 15.562743,-9.57659 23.453614,-9.57659 5.60291,0 6.509049,1.34917 6.456598,9.61341 -0.02327,3.66717 -0.358481,6.9593 -0.744902,7.31586 -0.386421,0.35655 -2.342423,1.05526 -4.34667,1.55269 -4.588345,1.13877 -5.051904,0.59637 -5.067847,-5.92978 -0.01063,-4.35031 -0.156808,-4.78506 -1.718397,-5.1106 -2.944614,-0.61386 -6.795467,0.61036 -8.46469,2.691 -1.518688,1.893 -1.595752,2.92436 -1.80663,24.17866 l -0.220274,22.20132 h 2.605402 c 3.371009,0 6.912279,-3.00718 7.960924,-6.76025 0.426641,-1.52694 0.986524,-6.11402 1.244186,-10.19352 0.631409,-9.99694 0.73425,-10.32409 3.530764,-11.23193 1.316413,-0.42734 2.650221,-0.77699 2.964019,-0.77699 0.313797,0 0.791114,3.73513 1.060704,8.30028 0.647046,10.9569 0.786618,11.47911 3.068036,11.47911 3.263489,0 4.648296,-3.82025 5.620181,-15.50434 0.327684,-3.93945 0.905109,-7.44184 1.283165,-7.78309 0.378057,-0.34126 1.919012,-0.83105 3.424346,-1.08844 2.616267,-0.44735 2.758444,-0.36799 3.22392,1.79934 0.267823,1.24704 0.486951,5.18391 0.486951,8.74862 0,6.89321 0.556879,8.17666 3.547789,8.17666 4.227412,0 5.309472,-5.65105 5.942323,-31.03373 0.25604,-10.26939 0.78306,-19.22413 1.171155,-19.89943 0.670893,-1.16737 5.774753,-3.22439 6.447019,-2.59835 0.174959,0.16293 0.539908,11.87682 0.810996,26.03086 0.289332,15.1065 0.801888,26.0993 1.241089,26.61764 0.41151,0.48565 1.722602,0.88301 2.913538,0.88301 3.643066,0 4.523239,-2.2073 5.018934,-12.5865 0.422327,-8.84298 0.382114,-9.17945 -1.190767,-9.96335 -1.78715,-0.89068 -2.173011,-3.50338 -0.71757,-4.85874 1.216905,-1.13323 4.533842,-1.07544 6.273714,0.10931 1.157941,0.78848 1.484008,2.27504 1.851766,8.44233 0.250103,4.19422 0.834698,7.84664 1.329603,8.30708 0.671486,0.62473 1.807882,0.60106 4.739836,-0.0987 3.765601,-0.89873 3.906801,-0.87563 5.985381,0.97883 2.27389,2.02872 4.58642,2.4296 6.0662,1.05158 1.78332,-1.66069 0.83484,-3.2156 -4.87672,-7.9948 -3.18285,-2.66328 -6.270606,-5.9202 -6.861696,-7.23759 -2.132315,-4.75242 2.277316,-9.27887 11.510846,-11.81579 6.23998,-1.71445 7.412,-1.66394 7.94371,0.34229 0.79091,2.9842 2.74534,2.46867 7.77971,-2.05207 4.48653,-4.02881 8.47336,-6.37549 9.38661,-5.52503 0.22434,0.20891 -0.29864,1.6695 -1.16218,3.24577 -1.31602,2.40224 -1.57005,4.16948 -1.57005,10.9225 0,7.08096 0.19038,8.28194 1.57219,9.91784 1.64277,1.94483 3.64108,2.33725 5.97604,1.17354 1.21296,-0.60451 1.44119,-2.07907 1.88605,-12.18552 0.65857,-14.96161 0.7525,-15.38302 3.42879,-15.38302 3.21733,0 4.02043,1.56135 4.65063,9.04152 0.72278,8.57914 1.07247,9.46325 3.6335,9.18667 3.39886,-0.36705 4.86441,-4.36686 5.35862,-14.62486 l 0.42339,-8.7882 3.34843,-1.03711 c 2.31947,-0.71842 3.72059,-0.82068 4.55953,-0.33278 0.86155,0.50105 2.94344,0.22464 7.21308,-0.95767 3.30109,-0.91411 6.19897,-1.47892 6.43973,-1.25515 0.24076,0.22378 0.53027,11.10929 0.64336,24.19002 0.11308,13.08073 0.38101,24.51843 0.59538,25.41711 0.30875,1.2943 0.81792,1.58799 2.44939,1.41281 1.59076,-0.1708 2.25247,-0.77683 2.90685,-2.66223 1.36782,-3.94093 2.86568,-3.70017 2.37168,0.38122 -0.33074,2.73257 -0.93956,3.87229 -3.01435,5.64294 -4.61446,3.93805 -11.57648,3.71823 -12.80292,-0.40424 -0.28897,-0.97131 -0.55942,-7.19959 -0.60101,-13.84063 -0.0416,-6.64104 -0.29875,-15.93912 -0.57147,-20.66241 l -0.49586,-8.58779 h -2.15913 -2.15914 v 10.61359 10.61359 l -2.08606,0.76444 c -5.5279,2.02569 -6.28627,2.04944 -7.03308,0.22026 -1.00184,-2.45386 -2.73518,-2.14875 -6.58974,1.15994 -6.77046,5.81164 -19.01891,9.36268 -23.29491,6.75359 -2.21253,-1.35001 -3.46594,-5.00053 -3.47187,-10.11164 -0.002,-2.00797 -0.21143,-4.15368 -0.46467,-4.76824 -0.51043,-1.23868 -4.4709,-1.553 -5.22631,-0.41478 -1.38594,2.0883 -3.25216,2.06866 -5.64339,-0.0594 -3.09339,-2.75294 -6.37576,-2.67174 -6.72867,0.16645 -0.18296,1.47147 0.43826,2.37347 2.91911,4.23844 7.31816,5.50142 8.33205,6.50422 9.15158,9.05148 1.69052,5.25445 -2.01338,8.69814 -12.58517,11.701 -7.590406,2.15601 -7.702606,2.15578 -8.288136,-0.0167 -0.694946,-2.57848 -2.728844,-2.19873 -6.172032,1.15238 -6.451596,6.27907 -25.376384,11.98629 -25.376384,7.65285 0,-0.37485 -0.82555,-0.68155 -1.834556,-0.68155 -1.253458,0 -2.319711,0.73102 -3.366222,2.30787 -0.842418,1.26933 -2.405001,3.07191 -3.472407,4.00573 l -1.940739,1.69786 -3.106346,-2.32467 c -2.720547,-2.03596 -3.317351,-2.21951 -4.805288,-1.47795 -0.934417,0.4657 -2.354112,1.85493 -3.154876,3.08719 -1.274668,1.96152 -1.503157,4.08739 -1.83522,17.075 l -0.379284,14.83455 -4.646948,0.20803 c -3.728323,0.16691 -4.740531,-0.0191 -5.120344,-0.94078 z m 18.801123,-73.77364 c -0.872377,-0.32852 -2.01037,-1.55106 -2.528873,-2.71676 -1.105851,-2.48617 -0.295829,-4.43218 2.573697,-6.18308 2.094152,-1.27778 4.09669,-0.6232 6.053831,1.97887 1.660071,2.20711 1.466022,3.87065 -0.685186,5.87393 -1.971955,1.83635 -2.860903,2.00829 -5.413469,1.04704 z"
       id="path1" /></g></svg>
