<?xml version="1.0" encoding="UTF-8" standalone="no"?>
<!-- Created with Inkscape (http://www.inkscape.org/) -->

<svg
   width="195.49452mm"
   height="47.320187mm"
   viewBox="0 0 195.49452 47.320187"
   version="1.1"
   id="svg1"
   xml:space="preserve"
   inkscape:version="1.3.2 (091e20e, 2023-11-25)"
   sodipodi:docname="ibanez.svg"
   xmlns:inkscape="http://www.inkscape.org/namespaces/inkscape"
   xmlns:sodipodi="http://sodipodi.sourceforge.net/DTD/sodipodi-0.dtd"
   xmlns="http://www.w3.org/2000/svg"
   xmlns:svg="http://www.w3.org/2000/svg"><sodipodi:namedview
     id="namedview1"
     pagecolor="#ffffff"
     bordercolor="#000000"
     borderopacity="0.25"
     inkscape:showpageshadow="2"
     inkscape:pageopacity="0.0"
     inkscape:pagecheckerboard="0"
     inkscape:deskcolor="#d1d1d1"
     inkscape:document-units="mm"
     inkscape:zoom="0.73673541"
     inkscape:cx="383.44838"
     inkscape:cy="125.55389"
     inkscape:window-width="1392"
     inkscape:window-height="970"
     inkscape:window-x="2104"
     inkscape:window-y="25"
     inkscape:window-maximized="0"
     inkscape:current-layer="layer1" /><defs
     id="defs1" /><g
     inkscape:label="Layer 1"
     inkscape:groupmode="layer"
     id="layer1"
     transform="translate(-3.4767118,-115.10668)"><path
       style="fill:#a0aec0;fill-opacity:1"
       d="m 49.335637,161.82083 c -0.732711,-0.29242 -2.121967,-1.13406 -3.087236,-1.8703 l -1.755034,-1.33863 -2.114412,1.39925 c -2.098859,1.38896 -2.214998,1.40156 -15.789215,1.71295 -13.320185,0.30557 -23.1130282,-0.0678 -23.1130282,-0.88119 0,-0.22137 1.4455231,-0.80438 3.2122736,-1.29558 5.0099416,-1.39289 6.6066466,-3.14654 8.2990286,-9.1148 2.904671,-10.24344 7.365148,-27.67596 7.365148,-28.78461 0,-1.61801 -2.461598,-3.88632 -4.942416,-4.55434 -2.620356,-0.70558 -2.286335,-1.35819 0.943027,-1.84246 2.995184,-0.44915 27.190457,0.24452 27.190457,0.77954 0,0.20718 -1.031464,0.68519 -2.292141,1.06227 -2.701477,0.80801 -5.026103,2.3579 -5.852479,3.902 -0.649003,1.21267 -4.758678,16.00277 -7.776803,27.98754 -2.074817,8.23895 -2.00123,9.13158 0.751468,9.11554 2.794706,-0.0163 3.057033,-0.50695 5.906652,-11.04795 5.509212,-20.37907 5.709116,-21.67067 3.669663,-23.71012 -1.279002,-1.27901 -1.279004,-1.27903 -0.134831,-1.58611 2.425555,-0.65097 8.543868,-0.31606 10.410869,0.56989 2.812445,1.3346 2.999282,2.48436 1.489493,9.16608 -1.674806,7.41201 -1.676069,7.5594 -0.0557,6.49769 1.935266,-1.26803 5.71752,-2.11959 7.734062,-1.74128 2.347188,0.44033 5.44489,3.1764 5.99358,5.29386 0.236772,0.91373 0.711218,1.75491 1.054324,1.86928 0.343106,0.11436 2.172016,-1.23234 4.064245,-2.99267 1.892229,-1.76034 4.270025,-3.45881 5.283991,-3.7744 6.345478,-1.97494 15.330476,-0.83732 18.511622,2.34383 1.198791,1.19879 1.093962,2.61582 -0.784451,10.60385 -1.278639,5.43747 -1.503939,7.16288 -1.012616,7.75489 0.782261,0.94257 2.876794,0.99319 3.610104,0.0873 0.300135,-0.37079 1.464636,-4.28056 2.587781,-8.68837 2.229137,-8.74828 2.207957,-9.03107 -0.796963,-10.64262 l -1.784908,-0.95726 2.025265,-0.37994 c 2.203493,-0.41338 11.284733,1e-4 12.761713,0.58105 0.50289,0.19781 1.10964,0.9409 1.34832,1.65131 l 0.43398,1.29167 2.73268,-1.90616 c 5.05328,-3.52486 11.76028,-3.00271 13.45248,1.04729 0.71843,1.71947 0.64346,2.39424 -1.01873,9.16849 l -1.79425,7.31243 1.16891,1.09813 c 0.75163,0.70612 1.8991,1.09814 3.21434,1.09814 1.74223,0 1.98558,-0.1399 1.64177,-0.94383 -0.88696,-2.07394 -0.82672,-3.86013 0.27777,-8.23589 1.63661,-6.4839 2.88662,-8.81743 5.73336,-10.70303 3.01593,-1.99767 8.43512,-2.99961 13.53702,-2.50282 9.18382,0.89425 11.1295,2.888 9.58653,9.82336 l -0.875,3.93297 h -8.28455 -8.28455 l -0.61648,2.96957 c -0.81654,3.93328 -0.59597,4.81205 1.26136,5.02544 1.24634,0.14319 2.04711,-0.3683 4.43282,-2.83147 l 2.9117,-3.00623 h 8.69874 8.69873 l 3.98747,-3.86643 c 2.19311,-2.12654 3.98747,-4.10332 3.98747,-4.39284 0,-0.97646 -7.44682,0.0173 -9.46182,1.26261 -1.02523,0.63362 -1.86944,1.31427 -1.87604,1.51255 -0.007,0.19828 -0.51113,0.96725 -1.1212,1.70882 l -1.1092,1.34832 0.33122,-2.37119 c 0.47713,-3.41577 2.34536,-7.422 4.18163,-8.96713 l 1.58759,-1.33587 h 14.6495 14.6495 l -9.42666,9.43823 -9.42667,9.43822 h 4.77474 c 3.90301,0 5.15565,-0.21409 6.86117,-1.17264 2.28908,-1.28654 4.26887,-3.92136 5.29891,-7.0521 0.6499,-1.97535 1.98319,-2.9483 1.47814,-1.07865 -0.14023,0.5191 -0.66789,3.16717 -1.17258,5.8846 -1.12235,6.04308 -2.21346,7.99131 -4.95419,8.84598 -1.30403,0.40664 -7.84265,0.72225 -17.96068,0.86693 l -15.91015,0.22751 3.64046,-3.53419 c 2.00225,-1.94381 3.64045,-3.65387 3.64045,-3.80014 0,-0.14628 -1.11314,-0.26595 -2.47365,-0.26595 -2.29895,0 -2.72025,0.23679 -5.96538,3.35292 -3.45744,3.32001 -3.52978,3.35675 -7.36906,3.74195 -2.13254,0.21396 -10.38817,0.40403 -18.34584,0.42236 l -14.46848,0.0334 -1.54485,-1.54485 c -1.73323,-1.73323 -1.82759,-0.40993 0.82026,-11.50327 1.12651,-4.71957 0.75694,-5.82833 -1.94268,-5.82833 -2.07339,0 -2.79769,1.26476 -4.60464,8.04051 -0.82335,3.08745 -2.00204,6.36386 -2.6193,7.28092 -1.94378,2.88784 -3.33385,3.2265 -14.207891,3.46146 l -9.889902,0.21369 -1.755204,-1.70121 c -1.623158,-1.57322 -1.812335,-1.63217 -2.514622,-0.78358 -0.41768,0.50469 -1.730208,1.35922 -2.916727,1.89896 -5.316325,2.41834 -10.46006,0.1894 -10.499727,-4.54986 -0.0378,-4.51589 3.088892,-7.15278 10.365758,-8.74194 5.280417,-1.15317 7.684549,-2.677 7.684549,-4.87077 0,-2.33338 -1.688804,-2.33356 -4.613329,-4.9e-4 -2.908027,2.3199 -5.063325,2.98132 -9.72785,2.98526 l -3.554635,0.003 -0.689626,3.10113 c -2.065217,9.28692 -9.261551,15.02654 -15.645717,12.47863 z m 29.6575,-5.73704 c 0.955213,-0.8609 1.966179,-2.55794 2.409684,-4.04495 0.420234,-1.40899 0.667324,-2.56181 0.54909,-2.56181 -0.118235,0 -1.682158,0.8599 -3.475385,1.91088 -3.660827,2.14555 -4.755958,4.15248 -2.976087,5.45395 1.358276,0.9932 1.610271,0.9385 3.492698,-0.75807 z m -28.714716,-0.81635 c 3.691277,-3.92918 4.308638,-12.80166 0.890759,-12.80166 -2.263932,0 -5.62495,5.99202 -5.62495,10.02816 0,3.77862 2.444529,5.21073 4.734191,2.7735 z m 99.625609,-12.26233 c 0,-2.20002 -0.12064,-2.42697 -1.29011,-2.42697 -1.3521,0 -2.92931,1.74346 -3.56571,3.94156 -0.34532,1.19272 -0.25105,1.23795 2.2477,1.07865 l 2.60812,-0.16627 z"
       id="path1" /></g></svg>
