<?xml version="1.0" encoding="UTF-8" standalone="no"?>
<!-- Created with Inkscape (http://www.inkscape.org/) -->

<svg
   width="196.4211mm"
   height="50.558239mm"
   viewBox="0 0 196.4211 50.558239"
   version="1.1"
   id="svg1"
   xml:space="preserve"
   inkscape:version="1.3.2 (091e20e, 2023-11-25)"
   sodipodi:docname="marshall.svg"
   xmlns:inkscape="http://www.inkscape.org/namespaces/inkscape"
   xmlns:sodipodi="http://sodipodi.sourceforge.net/DTD/sodipodi-0.dtd"
   xmlns="http://www.w3.org/2000/svg"
   xmlns:svg="http://www.w3.org/2000/svg"><sodipodi:namedview
     id="namedview1"
     pagecolor="#ffffff"
     bordercolor="#000000"
     borderopacity="0.25"
     inkscape:showpageshadow="2"
     inkscape:pageopacity="0.0"
     inkscape:pagecheckerboard="0"
     inkscape:deskcolor="#d1d1d1"
     inkscape:document-units="mm"
     inkscape:zoom="0.73673541"
     inkscape:cx="380.05503"
     inkscape:cy="84.833713"
     inkscape:window-width="1392"
     inkscape:window-height="970"
     inkscape:window-x="2077"
     inkscape:window-y="25"
     inkscape:window-maximized="0"
     inkscape:current-layer="layer1" /><defs
     id="defs1" /><g
     inkscape:label="Layer 1"
     inkscape:groupmode="layer"
     id="layer1"
     transform="translate(-4.4870451,-125.90123)"><path
       style="fill:#a0aec0;fill-opacity:1"
       d="m 102.99201,176.29983 c -2.13364,-0.3579 -3.544484,-1.30657 -4.775354,-3.21103 l -0.35549,-0.55001 -1.295439,0.83932 c -4.88127,3.16263 -8.241821,3.71362 -10.399013,1.70501 -2.866301,-2.66887 -1.210736,-7.85732 4.623826,-14.49082 0.950293,-1.08041 1.729421,-2.02569 1.731396,-2.10062 0.0057,-0.2145 -1.150401,-0.6917 -1.359146,-0.56103 -0.103219,0.0646 -1.43494,1.88638 -2.95938,4.04839 -4.868865,6.90515 -7.784439,10.35711 -10.125875,11.98876 -1.653412,1.15219 -3.694588,2.0412 -5.092875,2.21815 l -1.280708,0.16207 -1.10341,-1.10078 -1.103411,-1.10078 -1.783816,0.84785 c -4.175954,1.98483 -7.64009,1.53019 -9.544095,-1.25259 -0.586901,-0.85778 -0.65114,-0.89063 -1.102156,-0.56374 -3.262517,2.36467 -5.123307,3.12205 -7.682037,3.12673 -3.16785,0.006 -4.967108,-1.16113 -5.836326,-3.78523 -0.469666,-1.41789 -0.50163,-5.34894 -0.07326,-9.00991 0.153903,-1.31531 0.238036,-2.51844 0.186962,-2.67363 -0.05107,-0.15519 -1.056194,1.36446 -2.233601,3.377 -3.926677,6.71189 -7.206365,11.29091 -8.49864,11.8656 -0.738169,0.32827 -1.828897,0.12312 -2.33058,-0.43835 -0.338754,-0.37913 -0.238493,-0.92651 1.332867,-7.27678 1.756397,-7.09806 2.492156,-10.99613 2.366997,-12.54043 -0.06821,-0.84162 -0.212552,-0.61476 -2.519963,3.96046 -2.627306,5.20952 -4.435512,8.15783 -6.443639,10.50647 -3.779558,4.42045 -7.985844,6.39332 -12.308411,5.773 -3.3540244,-0.48132 -5.2824914,-1.40496 -6.7223173,-3.21964 -1.222384,-1.54064 -1.6838519,-2.87455 -1.7987042,-5.19932 -0.1312774,-2.65723 0.3934296,-4.2349 1.9240577,-5.78519 1.6566264,-1.67791 2.1056384,-1.84422 4.9792308,-1.84422 3.836317,0 5.426988,0.81678 4.993952,2.56429 -0.203638,0.82179 -0.733033,1.01967 -1.997258,0.74658 -1.409847,-0.30456 -2.462512,-0.0936 -3.363264,0.6741 -0.94439,0.80486 -1.3447354,1.82477 -1.3447354,3.42582 0,1.57934 0.4728914,2.66306 1.5569974,3.56815 1.625702,1.35725 4.17986,1.43077 6.804349,0.19584 3.336146,-1.56979 6.69989,-7.17534 13.709046,-22.84559 4.721508,-10.55579 8.925284,-18.588 11.309772,-21.60971 0.832743,-1.05528 1.874151,-1.10941 2.931685,-0.15236 0.964107,0.87249 0.919137,1.46059 -0.329851,4.31363 -2.281991,5.21271 -4.034905,10.60452 -4.958839,15.25294 -0.499093,2.511 -0.884477,8.94284 -0.512355,8.55089 0.120681,-0.12711 1.228297,-1.73906 2.46137,-3.58213 5.593791,-8.36099 11.010989,-15.37643 15.446258,-20.00337 3.503926,-3.65536 5.088028,-4.95599 6.036144,-4.95599 0.674021,0 1.676209,0.71399 1.676209,1.19418 0,0.34344 -0.974819,2.05791 -4.164933,7.32511 -7.124192,11.76276 -11.244505,20.19348 -12.854558,26.30216 -0.707938,2.68598 -1.002462,7.40721 -0.564126,9.04295 0.417619,1.55843 0.97118,1.97832 2.409871,1.82792 1.493018,-0.15607 2.768714,-0.7993 4.699751,-2.36971 1.244603,-1.01216 1.674351,-1.55731 2.482712,-3.14937 3.096265,-6.09807 6.893319,-9.82164 11.73647,-11.50934 2.670517,-0.93059 4.705014,-0.82235 6.534948,0.34767 0.785116,0.50199 0.887364,0.51742 1.165712,0.17586 0.586209,-0.71933 2.099174,-1.23368 2.924062,-0.99406 0.875907,0.25443 1.602265,0.85607 1.602265,1.32715 0,0.2838 -2.556349,5.42337 -5.974607,12.01201 -0.921044,1.7753 -0.959995,1.92304 -0.602551,2.28542 0.35754,0.36248 0.446761,0.34908 1.385645,-0.20821 1.627614,-0.9661 4.894071,-4.65501 7.62207,-8.60784 1.399555,-2.02793 2.773836,-4.0834 3.053957,-4.56772 l 0.509313,-0.88057 -0.608554,-1.57103 c -1.14018,-2.94346 -1.273401,-5.68975 -0.376477,-7.76087 1.319059,-3.04589 5.138677,-4.05809 7.039425,-1.86544 0.936221,1.07999 1.250993,2.19889 1.14634,4.07479 -0.07454,1.33607 -0.258601,1.9274 -1.154846,3.7101 l -1.066175,2.1207 2.043064,-0.13406 c 1.94639,-0.12772 2.075448,-0.10647 2.727488,0.44924 0.54076,0.46086 0.68443,0.76883 0.68443,1.46717 0,0.94819 -0.72847,2.05608 -4.367338,6.64203 -2.709187,3.41429 -4.020983,5.98355 -4.141332,8.11111 -0.04769,0.84307 -0.04447,0.84617 0.955525,0.91865 0.758125,0.055 1.34373,-0.0985 2.395826,-0.62781 2.930275,-1.47424 4.303149,-2.80502 9.440803,-9.15133 7.8847,-9.73962 8.70644,-10.68538 9.40761,-10.82741 0.84961,-0.17211 2.14578,0.21641 2.89257,0.86703 0.57752,0.50315 0.59491,0.57577 0.30659,1.28078 -0.16811,0.41107 -1.05952,1.79142 -1.98091,3.06745 -0.92139,1.27603 -1.67525,2.44288 -1.67525,2.59301 0,0.15013 0.31582,1.14945 0.70182,2.22071 0.386,1.07126 0.82305,2.86438 0.97121,3.98472 l 0.2694,2.03697 2.83315,-2.03387 2.83315,-2.03387 1.58587,-3.46657 c 0.87223,-1.90662 3.36515,-7.40478 5.53982,-12.21813 2.17467,-4.81335 4.1288,-8.94725 4.34252,-9.18643 0.48794,-0.5461 2.32244,-0.5919 3.29543,-0.0823 1.2198,0.63889 0.98432,1.43952 -3.6348,12.35819 -1.26366,2.98704 -2.20501,5.4631 -2.09188,5.50236 0.11313,0.0393 0.5997,-0.18055 1.08128,-0.48846 3.03047,-1.93763 4.7619,-2.27681 5.83423,-1.14289 1.3494,1.42691 1.7312,3.95364 0.95826,6.34174 -0.51174,1.5811 -1.7241,4.03113 -3.61564,7.3068 -0.82997,1.43729 -1.50904,2.71126 -1.50904,2.83104 0,0.62817 1.23732,0.0711 2.98102,-1.34224 1.74364,-1.41324 2.03226,-1.76656 3.0678,-3.75546 1.49356,-2.8686 2.35391,-4.10392 4.3131,-6.19293 2.93561,-3.13014 6.62468,-5.31247 9.35569,-5.5345 1.91769,-0.15591 2.8361,0.0396 4.04302,0.86056 l 0.99581,0.67739 0.70409,-0.6912 c 0.83322,-0.81796 1.91738,-1.04871 3.2367,-0.68889 1.75168,0.47773 1.76242,0.43293 -1.88833,7.87507 -1.81884,3.70775 -3.30699,6.99697 -3.30699,7.30938 0,0.63742 0.59412,1.9317 0.88672,1.9317 0.45527,0 2.11848,-1.34957 4.06738,-3.30035 1.63236,-1.63396 2.21378,-2.39089 2.6027,-3.38837 1.73077,-4.4391 5.73178,-11.1757 9.30667,-15.66987 4.31722,-5.42741 10.76752,-10.68945 13.1033,-10.68945 1.64486,0 2.89028,0.98492 2.89028,2.28574 0,1.39191 -2.59111,7.03658 -4.7095,10.25953 -1.64823,2.50764 -4.78611,5.96708 -7.29969,8.04774 -0.89501,0.74085 -2.99991,2.29791 -4.67757,3.46012 -1.67766,1.16222 -3.37458,2.42471 -3.77093,2.80555 -0.83754,0.80475 -1.21884,2.08214 -1.21884,4.08331 0,1.13309 0.10082,1.50565 0.5508,2.03538 0.45956,0.54103 0.72108,0.64483 1.57881,0.62671 2.82427,-0.0597 6.61817,-4.3106 11.09697,-12.43376 3.46415,-6.28289 5.99851,-9.91857 9.33986,-13.39856 2.71831,-2.83109 6.83581,-6.28095 8.35113,-6.99702 2.36246,-1.11639 4.44939,-0.46634 4.44939,1.38591 0,1.70991 -1.52863,5.6439 -3.49815,9.00261 -2.80755,4.78785 -6.21436,8.26604 -13.34978,13.62944 -3.37415,2.53622 -3.68772,2.97289 -3.68772,5.13542 0,1.4895 0.44766,2.74416 1.10655,3.10132 0.25337,0.13733 0.88222,0.2497 1.39745,0.2497 1.90181,0 4.09026,-1.64972 7.18805,-5.41856 1.19434,-1.45305 2.27241,-2.70507 2.39572,-2.78226 0.33226,-0.20799 1.09447,0.27595 1.25836,0.79895 0.47809,1.52566 -3.86395,7.39467 -7.44758,10.06668 -2.54267,1.89585 -5.52207,2.48765 -7.63382,1.51631 -1.25927,-0.57923 -1.84234,-1.241 -2.66575,-3.02559 -0.38121,-0.8262 -0.72373,-1.54146 -0.76115,-1.58947 -0.0374,-0.048 -0.61111,0.41041 -1.27485,1.01871 -3.40067,3.11661 -7.27231,4.71395 -9.77955,4.03478 -1.4229,-0.38543 -2.80337,-1.88144 -3.1719,-3.43734 -0.154,-0.65022 -0.32114,-1.18221 -0.37141,-1.18221 -0.0503,0 -0.9898,0.71048 -2.08785,1.57884 -3.42505,2.70861 -4.84594,3.31073 -6.65094,2.81845 -0.94978,-0.25903 -1.12409,-0.39806 -2.16876,-1.72974 l -0.53618,-0.68348 -2.13872,1.06761 c -2.44191,1.21896 -3.544,1.56731 -4.96442,1.56914 -1.79663,0.002 -2.7744,-0.45159 -4.32102,-2.00592 l -1.44238,-1.44957 -1.2833,0.96021 c -2.11229,1.58049 -4.0439,2.49673 -5.2607,2.49538 -2.54701,-0.003 -4.76162,-2.79894 -4.12329,-5.20597 0.13377,-0.50442 1.42571,-3.24268 2.87098,-6.08501 2.3248,-4.57208 2.58866,-5.20747 2.28868,-5.51131 -0.45481,-0.46066 -0.84307,-0.24199 -3.73088,2.10128 l -2.31178,1.87586 -2.57978,5.63388 c -1.59616,3.4858 -2.85645,5.93101 -3.30542,6.41317 -0.6432,0.69076 -0.86037,0.77929 -1.91161,0.77929 -1.47149,0 -2.019,-0.28537 -2.42204,-1.26239 -0.363,-0.87992 -0.23832,-1.49297 0.67481,-3.31809 0.74223,-1.48353 0.70156,-1.46958 -2.44556,0.83914 -4.2526,3.1197 -7.05242,4.18963 -9.77044,3.73371 z m 3.55509,-4.17338 c 0.49987,-0.44452 0.9006,-1.07751 1.06074,-1.67551 0.35202,-1.3145 0.13988,-5.09709 -0.35445,-6.32012 l -0.39127,-0.96804 -1.03901,1.18491 c -2.48935,2.83887 -3.71428,4.58787 -3.71428,5.30335 0,1.45696 1.63591,3.18705 3.01537,3.18897 0.36798,5.2e-4 0.94574,-0.28922 1.4229,-0.71356 z m -40.267254,-1.14938 c 1.896378,-0.90866 3.228482,-2.0233 4.518016,-3.78047 1.742312,-2.37415 3.245578,-6.1894 3.245578,-8.23719 0,-1.74648 -1.703585,-2.1328 -3.866304,-0.87674 -1.790555,1.03991 -5.232634,4.61461 -6.1383,6.3748 -1.638686,3.18484 -2.041288,5.48336 -1.159358,6.61895 0.635708,0.81856 1.539801,0.79214 3.400368,-0.0993 z m 78.852014,0.13671 c 3.17146,-1.60611 6.15061,-5.65491 7.19017,-9.77174 0.58902,-2.33266 0.57382,-3.17175 -0.0657,-3.62545 -1.10517,-0.78403 -3.09594,-0.19655 -5.28528,1.55971 -1.38327,1.10964 -3.70702,4.2173 -4.77188,6.38165 -0.83844,1.70417 -0.95737,2.13863 -0.9579,3.49944 -4.7e-4,1.20394 0.0973,1.66338 0.43406,2.04084 0.60428,0.6772 2.02092,0.64259 3.45653,-0.0845 z m 26.69015,-13.87653 c 2.75019,-2.20389 5.53653,-5.1602 7.05787,-7.48842 1.70721,-2.61266 3.46398,-5.95638 3.24565,-6.17752 -0.28261,-0.28624 -5.8779,5.54637 -7.79293,8.12345 -1.83043,2.46322 -4.45611,6.39912 -4.45611,6.67971 0,0.32475 0.44778,0.063 1.94552,-1.13722 z m 14.87645,-0.5389 c 4.17171,-3.64761 7.73724,-8.31964 9.18149,-12.03081 l 0.46929,-1.20589 -0.70809,0.41887 c -1.03027,0.60945 -5.24445,5.09445 -6.85838,7.29912 -1.35298,1.84819 -4.07498,6.31351 -4.07498,6.68481 0,0.42236 0.5271,0.11359 1.99067,-1.1661 z m -95.647795,-6.10134 c 0.60824,-1.32324 0.705703,-2.37467 0.303086,-3.26967 -0.649273,-1.4433 -1.615085,-0.47427 -1.655449,1.66098 -0.02144,1.1342 0.395874,2.82199 0.697752,2.82199 0.0533,0 0.347871,-0.54599 0.654611,-1.2133 z"
       id="path1" /></g></svg>
