<?xml version="1.0" encoding="UTF-8" standalone="no"?>
<!-- Created with Inkscape (http://www.inkscape.org/) -->

<svg
   width="202.51367mm"
   height="56.096317mm"
   viewBox="0 0 202.51367 56.096317"
   version="1.1"
   id="svg1"
   xml:space="preserve"
   inkscape:version="1.3.2 (091e20e, 2023-11-25)"
   sodipodi:docname="orange.svg"
   xmlns:inkscape="http://www.inkscape.org/namespaces/inkscape"
   xmlns:sodipodi="http://sodipodi.sourceforge.net/DTD/sodipodi-0.dtd"
   xmlns="http://www.w3.org/2000/svg"
   xmlns:svg="http://www.w3.org/2000/svg"><sodipodi:namedview
     id="namedview1"
     pagecolor="#ffffff"
     bordercolor="#000000"
     borderopacity="0.25"
     inkscape:showpageshadow="2"
     inkscape:pageopacity="0.0"
     inkscape:pagecheckerboard="0"
     inkscape:deskcolor="#d1d1d1"
     inkscape:document-units="mm"
     inkscape:zoom="0.73673541"
     inkscape:cx="357.65893"
     inkscape:cy="82.119034"
     inkscape:window-width="1392"
     inkscape:window-height="970"
     inkscape:window-x="2060"
     inkscape:window-y="60"
     inkscape:window-maximized="0"
     inkscape:current-layer="layer1" /><defs
     id="defs1" /><g
     inkscape:label="Layer 1"
     inkscape:groupmode="layer"
     id="layer1"
     transform="translate(-1.4718141,-112.85677)"><g
       id="g11"
       transform="translate(-2.5139057,77.212817)"
       style="fill:#a0aec0;fill-opacity:1"><path
         style="fill:#a0aec0;fill-opacity:1;stroke-width:0.35913"
         d="M 17.234191,75.096685 C 14.262426,74.145435 12.130115,72.746748 9.7137983,70.163698 7.1716412,67.446131 5.6132846,64.558361 4.6442098,60.769314 3.7664427,57.337287 3.7662418,54.697017 4.6434954,51.26703 6.3123957,44.741693 10.365878,39.403556 15.442572,37.045456 c 3.705598,-1.721237 9.778667,-1.472667 13.816378,0.56551 7.336372,3.70329 11.715194,15.064871 9.198216,23.866288 C 35.481156,71.883808 26.068167,77.924415 17.2342,75.096685 Z m 7.018097,-15.495471 c 3.236811,-2.000457 4.305839,-10.206824 2.015521,-15.472111 -2.153601,-4.950997 -6.735874,-5.157047 -8.964002,-0.40309 -0.884129,1.88638 -0.96342,2.42503 -0.96342,6.544677 0,3.960467 0.100785,4.712127 0.855831,6.382837 1.584942,3.507027 4.309442,4.645197 7.05607,2.947687 z"
         id="path6" /><path
         style="fill:#a0aec0;fill-opacity:1;stroke-width:0.35913"
         d="m 72.304229,91.241456 c -2.057209,-0.51788 -4.285345,-2.111667 -7.02801,-5.027137 -2.153156,-2.288807 -3.084074,-3.658337 -4.58265,-6.741787 -1.989262,-4.093067 -3.952623,-9.650224 -4.717081,-13.351371 -0.546021,-2.64357 -1.170274,-2.97987 -3.72223,-2.00527 l -1.644319,0.62797 0.103433,2.88079 c 0.1,2.785077 0.139234,2.900597 1.180822,3.476727 0.814883,0.45074 1.077389,0.85133 1.077389,1.64411 0,1.031337 -0.02882,1.046597 -1.795648,0.950937 -2.535428,-0.13727 -8.089841,-0.14555 -9.157798,-0.0136 -0.747056,0.0923 -0.897824,-0.0393 -0.897824,-0.783637 0,-0.63933 0.384215,-1.14317 1.346735,-1.76604 l 1.346737,-0.8715 V 55.292867 40.324086 l -1.399879,-0.54989 c -1.636474,-0.64282 -2.715429,-2.06509 -2.376561,-3.13277 0.277606,-0.874657 0.74771,-0.914297 2.442898,-0.206007 3.4495,1.441297 8.800822,1.714187 13.214532,0.673887 3.765889,-0.887617 7.995703,-0.823627 9.880338,0.14946 3.078366,1.58946 4.918826,5.019817 4.958059,9.241127 0.0284,3.056087 -1.543656,5.859087 -5.232096,9.328904 l -2.812563,2.645857 v 2.32306 c 0,4.270247 2.450145,11.763404 5.111073,15.630921 l 1.072986,1.55953 1.127738,-1.06653 c 1.590805,-1.50445 2.610321,-1.95195 4.512419,-1.98065 2.071677,-0.0312 4.891003,1.42111 6.052264,3.11778 2.08556,3.047147 2.00415,7.691114 -0.185671,10.591704 -1.511075,2.001537 -5.284745,3.243137 -7.875093,2.591047 z M 55.550709,55.354937 c 1.789677,-0.9155 3.790916,-2.88397 4.54278,-4.468397 0.39135,-0.82471 0.598911,-2.17908 0.598035,-3.902287 -0.0016,-3.02743 -0.674386,-4.50682 -2.599066,-5.714577 -1.561396,-0.97979 -5.172739,-0.83985 -6.643306,0.25744 l -0.991473,0.739807 -0.09819,6.594017 c -0.054,3.626707 -0.01019,6.823327 0.09736,7.103607 0.265097,0.69083 3.249986,0.33361 5.093856,-0.60961 z"
         id="path7" /><path
         style="fill:#a0aec0;fill-opacity:1;stroke-width:0.35913"
         d="m 81.971281,73.704785 c -0.246901,-0.0828 -0.448913,-0.613687 -0.448913,-1.179737 0,-0.75615 0.336852,-1.28611 1.269738,-1.99766 l 1.269735,-0.96847 -0.102565,-3.269577 -0.102566,-3.26957 -2.333837,-0.287537 c -4.237572,-0.52209 -6.798431,-2.7935 -7.536346,-6.684507 -0.739045,-3.896957 0.882647,-6.217907 5.283983,-7.562397 1.337283,-0.4085 2.835444,-0.97026 3.329247,-1.24836 1.001887,-0.564237 1.068321,-0.521297 -2.216412,-1.432657 -1.610098,-0.44673 -2.185112,-0.80928 -2.74451,-1.73045 -2.082856,-3.429857 -0.740952,-7.235347 2.7148,-7.698854 0.778671,-0.10444 3.420692,0.0984 5.871151,0.450837 5.753449,0.82741 14.996784,0.8455 19.718384,0.0386 3.10814,-0.531177 3.44963,-0.532557 3.83762,-0.0156 0.53081,0.70729 0.0635,2.09063 -1.13708,3.3662 l -0.84506,0.89783 -0.25941,13.901761 -0.25941,13.901761 1.12731,1.28394 c 1.21826,1.38752 1.38829,2.20129 0.66625,3.18874 -0.41928,0.573387 -0.68031,0.590147 -2.87984,0.184867 -1.90231,-0.350507 -3.01123,-0.353557 -5.19351,-0.0143 -2.509999,0.39022 -2.817741,0.37258 -3.225361,-0.184867 -0.24784,-0.33894 -0.450617,-0.8355 -0.450617,-1.10346 0,-0.61274 1.736371,-2.24855 2.386783,-2.24855 0.372895,0 0.486255,-0.75347 0.486255,-3.232167 v -3.23216 h -4.489121 -4.489116 l 0.0024,3.14238 c 0.0024,3.113457 0.01217,3.148017 1.077389,3.754157 1.178919,0.67084 1.41569,1.83778 0.599389,2.95414 -0.424579,0.580647 -0.677465,0.607327 -2.352018,0.248207 -2.186123,-0.468837 -5.081427,-0.508307 -6.868748,-0.0936 -0.691324,0.16039 -1.458963,0.22388 -1.705864,0.14107 z M 100.48636,52.425467 c 0.0603,-3.061577 0.0117,-6.388074 -0.10816,-7.392204 l -0.21786,-1.82571 -1.577755,0.23944 c -2.07985,0.31564 -3.928158,1.60215 -5.159912,3.59153 -1.431798,2.312477 -1.853303,3.737167 -2.095379,7.082404 -0.296965,4.103767 -0.305085,4.097157 4.882648,3.971757 l 4.166718,-0.10072 z"
         id="path8" /><path
         style="fill:#a0aec0;fill-opacity:1;stroke-width:0.35913"
         d="m 114.29914,72.626478 c -0.28629,-0.74355 0.18934,-1.51765 1.33201,-2.1679 l 1.08136,-0.61535 0.002,-13.758231 0.002,-13.758244 -1.25695,-1.646177 c -1.87139,-2.45088 -1.57361,-4.411487 0.75894,-4.996917 0.95057,-0.23858 3.66403,0.63353 5.16669,1.660577 1.46445,1.00093 1.86438,1.00769 4.30955,0.0728 4.41554,-1.688187 9.7078,-0.981687 13.1525,1.75581 3.90388,3.102417 6.60872,9.024994 6.04378,13.233601 -0.57229,4.26345 -1.92053,7.001137 -6.30843,12.809744 -2.56112,3.390337 -2.97269,4.614817 -1.90875,5.678757 0.69454,0.69454 1.83987,0.70424 3.02695,0.0257 1.86462,-1.06591 3.29083,-0.2662 2.72199,1.5263 -0.18021,0.5679 -0.82284,0.62848 -6.66763,0.62848 -7.3507,0 -7.21984,0.0674 -5.40902,-2.78793 1.51856,-2.394507 2.77543,-5.268497 3.86265,-8.832414 0.81651,-2.6765 0.94949,-3.77162 0.96564,-7.952197 0.0166,-4.287777 -0.08,-5.097347 -0.83514,-7.003024 -0.46963,-1.18512 -1.4565,-2.7608 -2.19305,-3.50151 -1.16731,-1.17389 -1.55503,-1.346727 -3.02112,-1.346727 -1.79807,0 -2.76931,0.369457 -4.05884,1.543987 l -0.80805,0.73599 v 13.083704 13.083711 l 0.91738,0.72161 c 0.57456,0.45194 0.87651,1.00512 0.80804,1.48031 -0.10597,0.73535 -0.28484,0.75894 -5.81077,0.76659 -4.23555,0.006 -5.74587,-0.10752 -5.87427,-0.44101 z"
         id="path9" /><path
         style="fill:#a0aec0;fill-opacity:1;stroke-width:0.35913"
         d="m 161.5234,91.612226 c -2.97548,-0.44287 -4.55188,-2.202827 -4.86176,-5.427877 -0.22022,-2.291847 0.47172,-4.484377 1.92174,-6.089377 2.39049,-2.645977 4.76168,-3.136027 7.96287,-1.645657 l 1.88543,0.877797 v -2.468017 c 0,-3.351867 -0.13436,-3.603717 -1.92385,-3.606217 -2.53683,-0.004 -5.53382,-0.63818 -7.78533,-1.6486 -4.02491,-1.80627 -7.81079,-6.894637 -9.17971,-12.337854 -0.96049,-3.819207 0.0405,-9.770594 2.29125,-13.621891 1.45746,-2.49394 4.47674,-5.344997 6.79019,-6.411857 1.82256,-0.84049 2.56265,-0.96575 5.85703,-0.99129 3.1594,-0.0245 4.01603,-0.15802 5.28285,-0.82342 1.62196,-0.85195 2.99141,-1.004007 4.03106,-0.4476 0.55801,0.29863 0.62276,0.6937 0.46808,2.85565 -0.1916,2.677807 0.34393,5.575797 1.20708,6.532097 1.07913,1.195587 -0.60334,2.506937 -2.15868,1.682527 -0.41249,-0.21864 -1.46012,-0.93763 -2.32806,-1.597747 -3.94181,-2.99797 -8.52742,-2.09418 -10.95826,2.159787 -1.81869,3.18272 -2.31265,8.898737 -1.12272,12.991954 1.43391,4.932507 7.49928,7.708794 10.15754,4.649397 0.72065,-0.82939 0.80805,-1.31357 0.80805,-4.476777 0,-3.51515 -0.009,-3.55353 -1.05615,-4.298857 -0.58089,-0.41362 -1.16257,-1.08733 -1.29263,-1.49712 -0.39243,-1.23645 0.28467,-1.52708 2.38428,-1.02339 2.52089,0.60475 5.17913,0.55612 7.13051,-0.13045 1.15713,-0.40712 1.72825,-0.45592 2.06499,-0.17644 0.76456,0.63452 0.53195,1.74376 -0.58432,2.78652 l -1.04981,0.980667 -0.23681,10.745324 c -0.25434,11.541294 -0.53029,13.626404 -2.21234,16.716881 -2.01067,3.694267 -4.85934,5.443887 -9.4589,5.809557 -1.28299,0.10199 -3.09812,0.0715 -4.03362,-0.0677 z"
         id="path10" /><path
         style="fill:#a0aec0;fill-opacity:1;stroke-width:0.35913"
         d="m 181.46672,72.654538 c -0.27256,-0.70939 0.52703,-1.7912 1.67554,-2.26693 l 1.09111,-0.45196 V 54.743787 39.551926 l -0.89782,-1.06701 c -0.49381,-0.58685 -0.89782,-1.21849 -0.89782,-1.40364 0,-0.20344 4.08519,-0.30565 10.32496,-0.25832 l 10.32497,0.0783 0.44249,0.84885 c 0.4271,0.81935 2.96924,8.855747 2.96924,9.386584 0,0.14351 -0.4307,0.26093 -0.9571,0.26093 -0.68151,0 -1.60609,-0.623177 -3.21092,-2.164217 -2.93397,-2.81734 -3.96673,-3.22272 -8.21041,-3.22272 h -3.42326 v 4.48912 4.489117 l 2.60369,-0.0114 c 1.718,-0.008 2.84082,-0.19079 3.3008,-0.5387 0.97372,-0.73648 2.48583,-0.65707 3.23417,0.16984 0.52641,0.58168 0.60996,1.23291 0.50457,3.932877 -0.0695,1.77967 -0.28791,3.393827 -0.48543,3.587027 -0.19752,0.19319 -0.80323,0.46094 -1.34601,0.59499 -0.81338,0.20088 -1.17503,0.0423 -2.05702,-0.90185 -1.05298,-1.127217 -1.10767,-1.141557 -3.41245,-0.894737 l -2.34232,0.25084 v 6.422484 6.422487 h 3.20878 c 1.76484,0 3.64139,-0.16447 4.17013,-0.3655 1.32732,-0.50464 3.38575,-2.330267 5.15562,-4.572527 1.48502,-1.88137 2.39822,-2.336837 2.76564,-1.37938 0.23204,0.60471 -0.1203,1.83811 -1.7534,6.137847 l -1.22761,3.23217 h -10.69422 c -7.84365,0 -10.73732,-0.11218 -10.85592,-0.42086 z"
         id="path11" /></g></g></svg>
